<svg id="Layer_1" data-name="Layer 1" xmlns="http://www.w3.org/2000/svg" viewBox="0 0 227.8 87.97"><defs><style>.cls-1,.cls-2,.cls-3{fill:#fff;}.cls-2{font-size:66.79px;}.cls-2,.cls-3{font-family:BellMTItalic, Bell MT;}.cls-3{font-size:21.97px;}.cls-4{letter-spacing:0.02em;}.cls-5{letter-spacing:0em;}</style></defs><title>L2 logo2</title><polygon class="cls-1" points="88.68 36.81 125.85 77.59 124.47 82.16 64.41 82.98 73.15 70.21 104.67 70.32 84.54 46.3 88.68 36.81"/><path class="cls-1" d="M156,457.61l-60.23-8.49c-2,.54-3.11,1.92-2.85,4.63l40.75,50.57H144.8l33.93-44.52-11-9.24-24.88,33.27,4.82,6.37-4.3,0-29.27-29.9a1.13,1.13,0,0,1,1-1.9l37.08,4.18Z" transform="translate(-92.84 -422.29)"/><polygon class="cls-1" points="77.45 25.98 87.78 35.09 86.46 36.81 75.85 27.92 77.45 25.98"/><path class="cls-1" d="M171.42,448.16c3.3-6.3,5.46-6.09,6.46-17.16,12.12-1.86,12.94-3.48,20.78-7.07l-13,15.54-2.17.84.13,2.44h2.76l.14-2.86,11.11-13.7c-1.68,7.63-2.48,14.25-2.14,19.81-8.3,2.65-9.49,5.72-14.91,10.16Z" transform="translate(-92.84 -422.29)"/><text class="cls-2" transform="translate(135.76 54.43) scale(0.89 1)">L2</text><text class="cls-3" transform="translate(135.76 82.03)">Lets Lea<tspan class="cls-4" x="72.42" y="0">r</tspan><tspan class="cls-5" x="81.12" y="0">n</tspan></text></svg>